<svg width="153" height="169" viewBox="0 0 153 169" fill="none" xmlns="http://www.w3.org/2000/svg">
<path d="M87.5242 113.439C101.464 99.4999 114.757 105.92 133.09 124.252C150.179 141.547 127.637 164.678 113.356 159.954C99.0755 155.231 79.7131 121.251 87.5242 113.439Z" fill="#FF0000"/>
<path fill-rule="evenodd" clip-rule="evenodd" d="M76.1864 1C121.686 1 151.186 21.5 151.686 48C152.186 74.5 137.257 86 103.757 97.5C77.4302 106.538 74.8374 114.958 69.5951 131.982C68.1668 136.62 66.5418 141.898 64.1865 148C51.0637 182 19.7571 177 4.75708 97.5C4.65434 96.9555 4.54214 96.3714 4.4228 95.7501C0.0692317 73.0849 -13.777 1 76.1864 1ZM51.7571 59.1514C51.7571 87.9012 106.757 68.1063 106.757 56.3236C106.757 44.5409 92.5329 37 76.8864 37C61.2398 37 51.7571 39.3565 51.7571 59.1514Z" fill="#FF0000"/>
<path d="M103.757 97.5L103.919 97.9729L103.919 97.9729L103.757 97.5ZM69.5951 131.982L70.073 132.129L70.073 132.129L69.5951 131.982ZM64.1865 148L64.6529 148.18L64.6529 148.18L64.1865 148ZM4.75708 97.5L4.26575 97.5927L4.26575 97.5927L4.75708 97.5ZM4.4228 95.7501L4.91383 95.6558L4.91383 95.6558L4.4228 95.7501ZM152.186 47.9906C151.932 34.5368 144.313 22.6475 131.082 14.1419C117.856 5.63978 99.0055 0.5 76.1864 0.5V1.5C98.8673 1.5 117.517 6.61022 130.541 14.9831C143.56 23.3525 150.94 34.9632 151.186 48.0094L152.186 47.9906ZM103.919 97.9729C120.679 92.2197 132.878 86.4411 140.82 78.7338C148.794 70.9954 152.438 61.3527 152.186 47.9906L151.186 48.0094C151.434 61.1473 147.864 70.5046 140.123 78.0162C132.351 85.5589 120.335 91.2803 103.595 97.0271L103.919 97.9729ZM70.073 132.129C72.7009 123.595 74.6345 117.341 79.1491 112.071C83.6571 106.809 90.7865 102.481 103.919 97.9729L103.595 97.0271C90.4008 101.556 83.0703 105.957 78.3897 111.421C73.7156 116.876 71.7316 123.345 69.1173 131.835L70.073 132.129ZM64.6529 148.18C67.0152 142.06 68.6447 136.767 70.073 132.129L69.1173 131.835C67.6889 136.473 66.0684 141.735 63.72 147.82L64.6529 148.18ZM4.26575 97.5927C8.02084 117.495 12.8005 132.757 18.0735 143.924C23.3421 155.082 29.125 162.198 34.9148 165.739C40.7385 169.301 46.5525 169.232 51.7349 166.059C56.8805 162.909 61.3519 156.733 64.6529 148.18L63.72 147.82C60.4596 156.267 56.0967 162.216 51.2127 165.206C46.3656 168.174 40.955 168.261 35.4366 164.886C29.8844 161.49 24.208 154.574 18.9778 143.497C13.752 132.43 8.99332 117.255 5.24841 97.4073L4.26575 97.5927ZM3.93178 95.8444C4.05115 96.4659 4.16319 97.0492 4.26575 97.5927L5.24841 97.4073C5.14549 96.8618 5.03313 96.2769 4.91383 95.6558L3.93178 95.8444ZM76.1864 0.5C53.6316 0.5 37.5283 5.01797 26.1412 12.1944C14.7472 19.3752 8.11507 29.1928 4.4634 39.7116C-2.82646 60.7106 1.75805 84.5277 3.93178 95.8444L4.91383 95.6558C2.73399 84.3073 -1.7814 60.7494 5.40809 40.0396C8.9961 29.7041 15.4984 20.0838 26.6744 13.0404C37.8573 5.99265 53.7596 1.5 76.1864 1.5V0.5ZM106.257 56.3236C106.257 57.6081 105.5 59.0879 104.028 60.6662C102.567 62.2326 100.462 63.8321 97.9079 65.3493C92.8024 68.3827 85.9801 71.044 79.1564 72.4474C72.3203 73.8533 65.5573 73.9815 60.5319 72.0292C58.0288 71.0569 55.9691 69.5737 54.5324 67.4842C53.0959 65.3952 52.2571 62.6635 52.2571 59.1514H51.2571C51.2571 62.8268 52.137 65.7655 53.7084 68.0508C55.2795 70.3357 57.5166 71.9307 60.1698 72.9614C65.4568 75.0153 72.4439 74.8488 79.3578 73.4269C86.284 72.0025 93.2118 69.3026 98.4187 66.209C101.021 64.6628 103.212 63.0073 104.759 61.3482C106.295 59.701 107.257 57.9848 107.257 56.3236H106.257ZM76.8864 37.5C84.6372 37.5 92.0105 39.3691 97.429 42.6703C102.845 45.9702 106.257 50.6613 106.257 56.3236H107.257C107.257 50.2032 103.557 45.2325 97.9493 41.8163C92.3441 38.4014 84.7822 36.5 76.8864 36.5V37.5ZM52.2571 59.1514C52.2571 49.319 54.6123 43.9857 58.7432 41.0607C62.9237 38.1006 69.0494 37.5 76.8864 37.5V36.5C69.0768 36.5 62.6378 37.0777 58.1653 40.2446C53.6432 43.4466 51.2571 49.1889 51.2571 59.1514H52.2571Z" fill="black"/>
</svg>
