<svg width="35" height="34" viewBox="0 0 35 34" fill="none" xmlns="http://www.w3.org/2000/svg">
<path d="M20.3584 32.4121C20.3584 32.4121 19.1112 23.6743 18.7135 18.0104L16.117 17.3008L15.9768 32.5202C18.8226 32.8798 20.3584 32.4121 20.3584 32.4121Z" fill="#1C4E24"/>
<path d="M28.3529 18.7687C29.3743 22.2389 26.74 20.2649 26.3891 21.8465L23.0868 18.8986C22.9575 20.7661 21.2182 18.9448 22.4565 21.9436C22.7281 22.6013 21.2951 23.0208 19.3744 21.0292C17.4536 19.0377 18.7582 23.1677 18.4405 24.5154C18.1229 25.8632 17.5823 24.1028 15.6616 22.1112C13.7408 20.1196 15.4598 24.0064 14.3636 24.616C13.4866 25.1037 10.2416 24.2646 10.1673 21.2564C8.7193 23.4089 6.26288 19.0633 5.08847 20.7701C3.62046 22.9036 1.90217 17.5412 2.28403 16.4249C2.66589 15.3086 1.83682 12.709 0.709457 14.4263C-0.417903 16.1436 1.14579 10.5937 2.11647 9.63762L2.13321 9.62113C3.09773 8.67118 4.01174 7.77099 4.71581 5.66843C5.42395 3.5537 5.58974 4.0322 9.71679 2.99824C13.8438 1.96429 12.3432 1.40537 15.1489 1.33613C17.9546 1.2669 23.0711 1.15402 25.9142 2.59854C28.7572 4.04306 32.3923 8.06625 32.8603 10.4432C33.3284 12.8202 33.0391 12.1005 31.9285 12.1279C30.818 12.1553 35.8355 17.2441 33.0026 16.2072C30.1696 15.1702 34.4866 18.6173 32.0901 18.6765C29.6936 18.7356 32.1546 17.3932 29.1151 17.4682C28.0161 17.4953 27.5283 17.3879 27.3838 17.3428C27.5428 17.4203 28.0551 17.7567 28.3529 18.7687Z" fill="#1C4E24"/>
</svg>
